<svg width="174" height="174" viewBox="0 0 174 174" fill="none" xmlns="http://www.w3.org/2000/svg">
<path d="M50.1703 110.773C51.274 110.729 52.1329 109.798 52.0886 108.695C52.0444 107.591 51.1139 106.732 50.0102 106.776L50.1703 110.773ZM29 89.4388L27.001 89.3761C26.9994 89.4281 26.9998 89.4802 27.0022 89.5322L29 89.4388ZM44.8268 70.7121L45.2218 72.6727C46.1553 72.4846 46.8267 71.6644 46.8267 70.7121H44.8268ZM44.8268 70.1031L42.829 70.0089C42.8275 70.0403 42.8268 70.0717 42.8268 70.1031H44.8268ZM65.9098 50.7746L65.8304 52.773C65.8581 52.7741 65.8858 52.7746 65.9136 52.7746L65.9098 50.7746ZM73.6455 52.1158L72.9686 53.9978C73.9137 54.3377 74.9644 53.924 75.4239 53.0308L73.6455 52.1158ZM100.18 36.2746L100.142 38.2742C100.183 38.275 100.223 38.2745 100.264 38.2728L100.18 36.2746ZM129.18 62.8603L131.18 62.8586C131.18 62.829 131.18 62.7995 131.178 62.77L129.18 62.8603ZM127.977 70.4728L126.075 69.8542C125.893 70.4155 125.967 71.0288 126.279 71.5299C126.591 72.0309 127.108 72.3686 127.693 72.4525L127.977 70.4728ZM145 89.4388L146.998 89.5322C147 89.478 147.001 89.4236 146.999 89.3693L145 89.4388ZM123.99 106.776C122.886 106.732 121.956 107.591 121.911 108.695C121.867 109.798 122.726 110.729 123.83 110.773L123.99 106.776ZM89 94.2746C89 93.17 88.1046 92.2746 87 92.2746C85.8954 92.2746 85 93.17 85 94.2746H89ZM85 137.775C85 138.879 85.8954 139.775 87 139.775C88.1046 139.775 89 138.879 89 137.775H85ZM88.4142 95.6888C89.1953 94.9077 89.1953 93.6414 88.4142 92.8604C87.6332 92.0793 86.3668 92.0793 85.5858 92.8604L88.4142 95.6888ZM71.0858 107.36C70.3047 108.141 70.3047 109.408 71.0858 110.189C71.8668 110.97 73.1332 110.97 73.9142 110.189L71.0858 107.36ZM88.4142 92.8604C87.6332 92.0793 86.3668 92.0793 85.5858 92.8604C84.8047 93.6414 84.8047 94.9077 85.5858 95.6888L88.4142 92.8604ZM100.086 110.189C100.867 110.97 102.133 110.97 102.914 110.189C103.695 109.408 103.695 108.141 102.914 107.36L100.086 110.189ZM50.0102 106.776C39.9592 107.179 31.4676 99.3935 30.9978 89.3454L27.0022 89.5322C27.5746 101.777 37.9223 111.264 50.1703 110.773L50.0102 106.776ZM30.999 89.5016C31.2573 81.27 37.1484 74.2994 45.2218 72.6727L44.4317 68.7515C34.5374 70.7451 27.3175 79.2879 27.001 89.3761L30.999 89.5016ZM46.8267 70.7121C46.8267 70.7117 46.8267 70.7113 46.8267 70.7109C46.8267 70.7105 46.8267 70.7101 46.8267 70.7097C46.8267 70.7093 46.8267 70.7089 46.8267 70.7085C46.8267 70.7081 46.8267 70.7077 46.8267 70.7073C46.8267 70.7069 46.8267 70.7065 46.8267 70.7061C46.8267 70.7057 46.8267 70.7053 46.8267 70.7049C46.8267 70.7045 46.8267 70.7042 46.8267 70.7038C46.8267 70.7034 46.8267 70.703 46.8267 70.7026C46.8267 70.7022 46.8267 70.7018 46.8267 70.7014C46.8267 70.701 46.8267 70.7006 46.8267 70.7002C46.8267 70.6998 46.8267 70.6994 46.8267 70.699C46.8267 70.6986 46.8267 70.6982 46.8267 70.6978C46.8267 70.6974 46.8267 70.697 46.8267 70.6966C46.8267 70.6962 46.8267 70.6958 46.8267 70.6954C46.8267 70.695 46.8267 70.6946 46.8267 70.6942C46.8267 70.6938 46.8267 70.6934 46.8267 70.693C46.8267 70.6927 46.8267 70.6923 46.8267 70.6919C46.8267 70.6915 46.8267 70.6911 46.8267 70.6907C46.8267 70.6903 46.8267 70.6899 46.8267 70.6895C46.8267 70.6891 46.8267 70.6887 46.8267 70.6883C46.8267 70.6879 46.8267 70.6875 46.8267 70.6871C46.8267 70.6867 46.8267 70.6863 46.8267 70.6859C46.8267 70.6855 46.8267 70.6851 46.8267 70.6847C46.8267 70.6843 46.8267 70.6839 46.8267 70.6835C46.8267 70.6831 46.8267 70.6827 46.8267 70.6823C46.8267 70.6819 46.8267 70.6815 46.8267 70.6812C46.8267 70.6808 46.8267 70.6804 46.8267 70.68C46.8267 70.6796 46.8267 70.6792 46.8267 70.6788C46.8267 70.6784 46.8267 70.678 46.8267 70.6776C46.8267 70.6772 46.8267 70.6768 46.8267 70.6764C46.8267 70.676 46.8267 70.6756 46.8267 70.6752C46.8267 70.6748 46.8267 70.6744 46.8267 70.674C46.8267 70.6736 46.8267 70.6732 46.8267 70.6728C46.8267 70.6724 46.8267 70.672 46.8267 70.6716C46.8267 70.6712 46.8267 70.6708 46.8267 70.6704C46.8267 70.6701 46.8267 70.6697 46.8267 70.6693C46.8267 70.6689 46.8267 70.6685 46.8267 70.6681C46.8267 70.6677 46.8267 70.6673 46.8267 70.6669C46.8267 70.6665 46.8267 70.6661 46.8267 70.6657C46.8267 70.6653 46.8267 70.6649 46.8267 70.6645C46.8267 70.6641 46.8267 70.6637 46.8267 70.6633C46.8267 70.6629 46.8267 70.6625 46.8267 70.6621C46.8267 70.6617 46.8267 70.6613 46.8267 70.6609C46.8267 70.6605 46.8267 70.6601 46.8267 70.6597C46.8267 70.6593 46.8267 70.659 46.8267 70.6586C46.8267 70.6582 46.8267 70.6578 46.8267 70.6574C46.8267 70.657 46.8267 70.6566 46.8267 70.6562C46.8267 70.6558 46.8267 70.6554 46.8267 70.655C46.8267 70.6546 46.8267 70.6542 46.8267 70.6538C46.8267 70.6534 46.8267 70.653 46.8267 70.6526C46.8267 70.6522 46.8267 70.6518 46.8267 70.6514C46.8267 70.651 46.8267 70.6506 46.8267 70.6502C46.8267 70.6498 46.8267 70.6494 46.8267 70.649C46.8267 70.6486 46.8267 70.6482 46.8267 70.6479C46.8267 70.6475 46.8267 70.6471 46.8267 70.6467C46.8267 70.6463 46.8267 70.6459 46.8267 70.6455C46.8267 70.6451 46.8267 70.6447 46.8267 70.6443C46.8267 70.6439 46.8267 70.6435 46.8267 70.6431C46.8267 70.6427 46.8267 70.6423 46.8267 70.6419C46.8267 70.6415 46.8267 70.6411 46.8267 70.6407C46.8267 70.6403 46.8267 70.6399 46.8267 70.6395C46.8267 70.6391 46.8267 70.6387 46.8267 70.6383C46.8267 70.6379 46.8267 70.6375 46.8267 70.6371C46.8267 70.6367 46.8267 70.6364 46.8267 70.636C46.8267 70.6356 46.8267 70.6352 46.8267 70.6348C46.8267 70.6344 46.8267 70.634 46.8267 70.6336C46.8267 70.6332 46.8267 70.6328 46.8267 70.6324C46.8267 70.632 46.8267 70.6316 46.8267 70.6312C46.8267 70.6308 46.8267 70.6304 46.8267 70.63C46.8267 70.6296 46.8267 70.6292 46.8267 70.6288C46.8267 70.6284 46.8267 70.628 46.8267 70.6276C46.8267 70.6272 46.8267 70.6268 46.8267 70.6264C46.8267 70.626 46.8267 70.6256 46.8267 70.6252C46.8267 70.6249 46.8267 70.6245 46.8267 70.6241C46.8267 70.6237 46.8267 70.6233 46.8267 70.6229C46.8267 70.6225 46.8267 70.6221 46.8267 70.6217C46.8267 70.6213 46.8267 70.6209 46.8267 70.6205C46.8267 70.6201 46.8267 70.6197 46.8267 70.6193C46.8267 70.6189 46.8267 70.6185 46.8267 70.6181C46.8267 70.6177 46.8267 70.6173 46.8267 70.6169C46.8267 70.6165 46.8267 70.6161 46.8267 70.6157C46.8267 70.6153 46.8267 70.6149 46.8267 70.6145C46.8267 70.6141 46.8267 70.6138 46.8267 70.6134C46.8267 70.613 46.8267 70.6126 46.8267 70.6122C46.8267 70.6118 46.8267 70.6114 46.8267 70.611C46.8267 70.6106 46.8267 70.6102 46.8267 70.6098C46.8267 70.6094 46.8267 70.609 46.8267 70.6086C46.8267 70.6082 46.8267 70.6078 46.8267 70.6074C46.8267 70.607 46.8267 70.6066 46.8267 70.6062C46.8267 70.6058 46.8267 70.6054 46.8267 70.605C46.8267 70.6046 46.8267 70.6042 46.8267 70.6038C46.8267 70.6034 46.8267 70.603 46.8267 70.6026C46.8267 70.6023 46.8267 70.6019 46.8267 70.6015C46.8267 70.6011 46.8267 70.6007 46.8267 70.6003C46.8267 70.5999 46.8267 70.5995 46.8267 70.5991C46.8267 70.5987 46.8267 70.5983 46.8267 70.5979C46.8267 70.5975 46.8267 70.5971 46.8267 70.5967C46.8267 70.5963 46.8267 70.5959 46.8267 70.5955C46.8267 70.5951 46.8267 70.5947 46.8267 70.5943C46.8267 70.5939 46.8267 70.5935 46.8267 70.5931C46.8267 70.5927 46.8267 70.5923 46.8267 70.5919C46.8267 70.5915 46.8267 70.5912 46.8267 70.5908C46.8267 70.5904 46.8267 70.59 46.8267 70.5896C46.8267 70.5892 46.8267 70.5888 46.8267 70.5884C46.8267 70.588 46.8267 70.5876 46.8267 70.5872C46.8267 70.5868 46.8267 70.5864 46.8267 70.586C46.8267 70.5856 46.8267 70.5852 46.8267 70.5848C46.8267 70.5844 46.8267 70.584 46.8267 70.5836C46.8267 70.5832 46.8267 70.5828 46.8267 70.5824C46.8267 70.582 46.8267 70.5816 46.8267 70.5812C46.8267 70.5808 46.8267 70.5804 46.8267 70.5801C46.8267 70.5797 46.8267 70.5793 46.8267 70.5789C46.8267 70.5785 46.8267 70.5781 46.8267 70.5777C46.8267 70.5773 46.8267 70.5769 46.8267 70.5765C46.8267 70.5761 46.8267 70.5757 46.8267 70.5753C46.8267 70.5749 46.8267 70.5745 46.8267 70.5741C46.8267 70.5737 46.8267 70.5733 46.8267 70.5729C46.8267 70.5725 46.8267 70.5721 46.8267 70.5717C46.8267 70.5713 46.8267 70.5709 46.8267 70.5705C46.8267 70.5701 46.8267 70.5697 46.8267 70.5693C46.8267 70.5689 46.8267 70.5686 46.8267 70.5682C46.8267 70.5678 46.8267 70.5674 46.8267 70.567C46.8267 70.5666 46.8267 70.5662 46.8267 70.5658C46.8267 70.5654 46.8267 70.565 46.8267 70.5646C46.8267 70.5642 46.8267 70.5638 46.8267 70.5634C46.8267 70.563 46.8267 70.5626 46.8267 70.5622C46.8267 70.5618 46.8267 70.5614 46.8267 70.561C46.8267 70.5606 46.8267 70.5602 46.8267 70.5598C46.8267 70.5594 46.8267 70.559 46.8267 70.5586C46.8267 70.5582 46.8267 70.5578 46.8267 70.5574C46.8267 70.5571 46.8267 70.5567 46.8267 70.5563C46.8267 70.5559 46.8267 70.5555 46.8267 70.5551C46.8267 70.5547 46.8267 70.5543 46.8267 70.5539C46.8267 70.5535 46.8267 70.5531 46.8267 70.5527C46.8267 70.5523 46.8267 70.5519 46.8267 70.5515C46.8267 70.5511 46.8267 70.5507 46.8267 70.5503C46.8267 70.5499 46.8267 70.5495 46.8267 70.5491C46.8267 70.5487 46.8267 70.5483 46.8267 70.5479C46.8267 70.5475 46.8267 70.5471 46.8267 70.5467C46.8267 70.5463 46.8267 70.546 46.8267 70.5456C46.8267 70.5452 46.8267 70.5448 46.8267 70.5444C46.8267 70.544 46.8267 70.5436 46.8267 70.5432C46.8267 70.5428 46.8267 70.5424 46.8267 70.542C46.8267 70.5416 46.8267 70.5412 46.8267 70.5408C46.8267 70.5404 46.8267 70.54 46.8267 70.5396C46.8267 70.5392 46.8267 70.5388 46.8267 70.5384C46.8267 70.538 46.8267 70.5376 46.8267 70.5372C46.8267 70.5368 46.8267 70.5364 46.8267 70.536C46.8267 70.5356 46.8267 70.5352 46.8267 70.5349C46.8267 70.5345 46.8267 70.5341 46.8267 70.5337C46.8267 70.5333 46.8267 70.5329 46.8267 70.5325C46.8267 70.5321 46.8267 70.5317 46.8267 70.5313C46.8267 70.5309 46.8267 70.5305 46.8267 70.5301C46.8267 70.5297 46.8267 70.5293 46.8267 70.5289C46.8267 70.5285 46.8267 70.5281 46.8267 70.5277C46.8267 70.5273 46.8267 70.5269 46.8267 70.5265C46.8267 70.5261 46.8267 70.5257 46.8267 70.5253C46.8267 70.5249 46.8267 70.5245 46.8267 70.5241C46.8267 70.5238 46.8267 70.5234 46.8267 70.523C46.8267 70.5226 46.8267 70.5222 46.8267 70.5218C46.8267 70.5214 46.8267 70.521 46.8267 70.5206C46.8267 70.5202 46.8267 70.5198 46.8267 70.5194C46.8267 70.519 46.8267 70.5186 46.8267 70.5182C46.8267 70.5178 46.8267 70.5174 46.8267 70.517C46.8267 70.5166 46.8267 70.5162 46.8267 70.5158C46.8267 70.5154 46.8267 70.515 46.8267 70.5146C46.8267 70.5142 46.8267 70.5138 46.8267 70.5134C46.8267 70.513 46.8267 70.5126 46.8267 70.5123C46.8267 70.5119 46.8267 70.5115 46.8267 70.5111C46.8267 70.5107 46.8267 70.5103 46.8267 70.5099C46.8267 70.5095 46.8267 70.5091 46.8267 70.5087C46.8267 70.5083 46.8267 70.5079 46.8267 70.5075C46.8267 70.5071 46.8267 70.5067 46.8267 70.5063C46.8267 70.5059 46.8267 70.5055 46.8267 70.5051C46.8267 70.5047 46.8267 70.5043 46.8267 70.5039C46.8267 70.5035 46.8267 70.5031 46.8267 70.5027C46.8267 70.5023 46.8267 70.5019 46.8267 70.5015C46.8267 70.5011 46.8267 70.5008 46.8267 70.5004C46.8267 70.5 46.8267 70.4996 46.8267 70.4992C46.8267 70.4988 46.8267 70.4984 46.8267 70.498C46.8267 70.4976 46.8267 70.4972 46.8267 70.4968C46.8267 70.4964 46.8267 70.496 46.8267 70.4956C46.8267 70.4952 46.8267 70.4948 46.8267 70.4944C46.8267 70.494 46.8267 70.4936 46.8267 70.4932C46.8267 70.4928 46.8267 70.4924 46.8267 70.492C46.8267 70.4916 46.8267 70.4912 46.8267 70.4908C46.8267 70.4904 46.8267 70.49 46.8267 70.4897C46.8267 70.4893 46.8267 70.4889 46.8267 70.4885C46.8267 70.4881 46.8267 70.4877 46.8267 70.4873C46.8267 70.4869 46.8267 70.4865 46.8267 70.4861C46.8267 70.4857 46.8267 70.4853 46.8267 70.4849C46.8267 70.4845 46.8267 70.4841 46.8267 70.4837C46.8267 70.4833 46.8267 70.4829 46.8267 70.4825C46.8267 70.4821 46.8267 70.4817 46.8267 70.4813C46.8267 70.4809 46.8267 70.4805 46.8267 70.4801C46.8267 70.4797 46.8267 70.4793 46.8267 70.4789C46.8267 70.4785 46.8267 70.4782 46.8267 70.4778C46.8267 70.4774 46.8267 70.477 46.8267 70.4766C46.8267 70.4762 46.8267 70.4758 46.8267 70.4754C46.8267 70.475 46.8267 70.4746 46.8267 70.4742C46.8267 70.4738 46.8267 70.4734 46.8267 70.473C46.8267 70.4726 46.8267 70.4722 46.8267 70.4718C46.8267 70.4714 46.8267 70.471 46.8267 70.4706C46.8267 70.4702 46.8267 70.4698 46.8267 70.4694C46.8267 70.469 46.8267 70.4686 46.8267 70.4682C46.8267 70.4678 46.8267 70.4674 46.8267 70.4671C46.8267 70.4667 46.8267 70.4663 46.8267 70.4659C46.8267 70.4655 46.8267 70.4651 46.8267 70.4647C46.8267 70.4643 46.8267 70.4639 46.8267 70.4635C46.8267 70.4631 46.8267 70.4627 46.8267 70.4623C46.8267 70.4619 46.8267 70.4615 46.8267 70.4611C46.8267 70.4607 46.8267 70.4603 46.8267 70.4599C46.8267 70.4595 46.8267 70.4591 46.8267 70.4587C46.8267 70.4583 46.8267 70.4579 46.8267 70.4575C46.8267 70.4571 46.8267 70.4567 46.8267 70.4563C46.8267 70.456 46.8267 70.4556 46.8267 70.4552C46.8267 70.4548 46.8267 70.4544 46.8267 70.454C46.8267 70.4536 46.8267 70.4532 46.8267 70.4528C46.8267 70.4524 46.8267 70.452 46.8267 70.4516C46.8267 70.4512 46.8267 70.4508 46.8267 70.4504C46.8267 70.45 46.8267 70.4496 46.8267 70.4492C46.8267 70.4488 46.8267 70.4484 46.8267 70.448C46.8267 70.4476 46.8267 70.4472 46.8267 70.4468C46.8267 70.4464 46.8267 70.446 46.8267 70.4456C46.8267 70.4452 46.8267 70.4448 46.8267 70.4445C46.8267 70.4441 46.8267 70.4437 46.8267 70.4433C46.8267 70.4429 46.8267 70.4425 46.8267 70.4421C46.8267 70.4417 46.8267 70.4413 46.8267 70.4409C46.8267 70.4405 46.8267 70.4401 46.8267 70.4397C46.8267 70.4393 46.8267 70.4389 46.8267 70.4385C46.8267 70.4381 46.8267 70.4377 46.8267 70.4373C46.8267 70.4369 46.8267 70.4365 46.8267 70.4361C46.8267 70.4357 46.8267 70.4353 46.8267 70.4349C46.8267 70.4345 46.8267 70.4341 46.8267 70.4337C46.8267 70.4333 46.8267 70.433 46.8267 70.4326C46.8267 70.4322 46.8267 70.4318 46.8267 70.4314C46.8267 70.431 46.8267 70.4306 46.8267 70.4302C46.8267 70.4298 46.8267 70.4294 46.8267 70.429C46.8267 70.4286 46.8267 70.4282 46.8267 70.4278C46.8267 70.4274 46.8267 70.427 46.8267 70.4266C46.8267 70.4262 46.8267 70.4258 46.8267 70.4254C46.8267 70.425 46.8267 70.4246 46.8267 70.4242C46.8267 70.4238 46.8267 70.4234 46.8267 70.423C46.8267 70.4226 46.8267 70.4222 46.8267 70.4219C46.8267 70.4215 46.8267 70.4211 46.8267 70.4207C46.8267 70.4203 46.8267 70.4199 46.8267 70.4195C46.8267 70.4191 46.8267 70.4187 46.8267 70.4183C46.8267 70.4179 46.8267 70.4175 46.8267 70.4171C46.8267 70.4167 46.8267 70.4163 46.8267 70.4159C46.8267 70.4155 46.8267 70.4151 46.8267 70.4147C46.8267 70.4143 46.8267 70.4139 46.8267 70.4135C46.8267 70.4131 46.8267 70.4127 46.8267 70.4123C46.8267 70.4119 46.8267 70.4115 46.8267 70.4111C46.8267 70.4108 46.8267 70.4104 46.8267 70.41C46.8267 70.4096 46.8267 70.4092 46.8267 70.4088C46.8267 70.4084 46.8267 70.408 46.8267 70.4076C46.8267 70.4072 46.8267 70.4068 46.8267 70.4064C46.8267 70.406 46.8267 70.4056 46.8267 70.4052C46.8267 70.4048 46.8267 70.4044 46.8267 70.404C46.8267 70.4036 46.8267 70.4032 46.8267 70.4028C46.8267 70.4024 46.8267 70.402 46.8267 70.4016C46.8267 70.4012 46.8267 70.4008 46.8267 70.4004C46.8267 70.4 46.8267 70.3997 46.8267 70.3993C46.8267 70.3989 46.8267 70.3985 46.8267 70.3981C46.8267 70.3977 46.8267 70.3973 46.8267 70.3969C46.8267 70.3965 46.8267 70.3961 46.8267 70.3957C46.8267 70.3953 46.8267 70.3949 46.8267 70.3945C46.8267 70.3941 46.8267 70.3937 46.8267 70.3933C46.8267 70.3929 46.8267 70.3925 46.8267 70.3921C46.8267 70.3917 46.8267 70.3913 46.8267 70.3909C46.8267 70.3905 46.8267 70.3901 46.8267 70.3897C46.8267 70.3893 46.8267 70.3889 46.8267 70.3885C46.8267 70.3882 46.8267 70.3878 46.8267 70.3874C46.8267 70.387 46.8267 70.3866 46.8267 70.3862C46.8267 70.3858 46.8267 70.3854 46.8267 70.385C46.8267 70.3846 46.8267 70.3842 46.8267 70.3838C46.8267 70.3834 46.8267 70.383 46.8267 70.3826C46.8267 70.3822 46.8267 70.3818 46.8267 70.3814C46.8267 70.381 46.8267 70.3806 46.8267 70.3802C46.8267 70.3798 46.8267 70.3794 46.8267 70.379C46.8267 70.3786 46.8267 70.3782 46.8267 70.3778C46.8267 70.3774 46.8267 70.377 46.8267 70.3767C46.8267 70.3763 46.8267 70.3759 46.8267 70.3755C46.8267 70.3751 46.8267 70.3747 46.8267 70.3743C46.8267 70.3739 46.8267 70.3735 46.8267 70.3731C46.8267 70.3727 46.8267 70.3723 46.8267 70.3719C46.8267 70.3715 46.8267 70.3711 46.8267 70.3707C46.8267 70.3703 46.8267 70.3699 46.8267 70.3695C46.8267 70.3691 46.8267 70.3687 46.8267 70.3683C46.8267 70.3679 46.8267 70.3675 46.8267 70.3671C46.8267 70.3667 46.8267 70.3663 46.8267 70.3659C46.8267 70.3656 46.8267 70.3652 46.8267 70.3648C46.8267 70.3644 46.8267 70.364 46.8267 70.3636C46.8267 70.3632 46.8267 70.3628 46.8267 70.3624C46.8267 70.362 46.8267 70.3616 46.8267 70.3612C46.8267 70.3608 46.8267 70.3604 46.8267 70.36C46.8267 70.3596 46.8267 70.3592 46.8267 70.3588C46.8267 70.3584 46.8267 70.358 46.8267 70.3576C46.8267 70.3572 46.8267 70.3568 46.8267 70.3564C46.8267 70.356 46.8267 70.3556 46.8267 70.3552C46.8267 70.3548 46.8267 70.3545 46.8267 70.3541C46.8267 70.3537 46.8267 70.3533 46.8267 70.3529C46.8267 70.3525 46.8267 70.3521 46.8267 70.3517C46.8267 70.3513 46.8267 70.3509 46.8267 70.3505C46.8267 70.3501 46.8267 70.3497 46.8267 70.3493C46.8267 70.3489 46.8267 70.3485 46.8267 70.3481C46.8267 70.3477 46.8267 70.3473 46.8267 70.3469C46.8267 70.3465 46.8267 70.3461 46.8267 70.3457C46.8267 70.3453 46.8267 70.3449 46.8267 70.3445C46.8267 70.3441 46.8267 70.3437 46.8267 70.3433C46.8267 70.343 46.8267 70.3426 46.8267 70.3422C46.8267 70.3418 46.8267 70.3414 46.8267 70.341C46.8267 70.3406 46.8267 70.3402 46.8267 70.3398C46.8267 70.3394 46.8267 70.339 46.8267 70.3386C46.8267 70.3382 46.8267 70.3378 46.8267 70.3374C46.8267 70.337 46.8267 70.3366 46.8267 70.3362C46.8267 70.3358 46.8267 70.3354 46.8267 70.335C46.8267 70.3346 46.8267 70.3342 46.8267 70.3338C46.8267 70.3334 46.8267 70.333 46.8267 70.3326C46.8267 70.3322 46.8267 70.3319 46.8267 70.3315C46.8267 70.3311 46.8267 70.3307 46.8267 70.3303C46.8267 70.3299 46.8267 70.3295 46.8267 70.3291C46.8267 70.3287 46.8267 70.3283 46.8267 70.3279C46.8267 70.3275 46.8267 70.3271 46.8267 70.3267C46.8267 70.3263 46.8267 70.3259 46.8267 70.3255C46.8267 70.3251 46.8267 70.3247 46.8267 70.3243C46.8267 70.3239 46.8267 70.3235 46.8267 70.3231C46.8267 70.3227 46.8267 70.3223 46.8267 70.3219C46.8267 70.3215 46.8267 70.3211 46.8267 70.3207C46.8267 70.3204 46.8267 70.32 46.8267 70.3196C46.8267 70.3192 46.8267 70.3188 46.8267 70.3184C46.8267 70.318 46.8267 70.3176 46.8267 70.3172C46.8267 70.3168 46.8267 70.3164 46.8267 70.316C46.8267 70.3156 46.8267 70.3152 46.8267 70.3148C46.8267 70.3144 46.8267 70.314 46.8267 70.3136C46.8267 70.3132 46.8267 70.3128 46.8267 70.3124C46.8267 70.312 46.8267 70.3116 46.8267 70.3112C46.8267 70.3108 46.8267 70.3104 46.8267 70.31C46.8267 70.3096 46.8267 70.3092 46.8267 70.3089C46.8267 70.3085 46.8267 70.3081 46.8267 70.3077C46.8267 70.3073 46.8267 70.3069 46.8267 70.3065C46.8267 70.3061 46.8267 70.3057 46.8267 70.3053C46.8267 70.3049 46.8267 70.3045 46.8267 70.3041C46.8267 70.3037 46.8267 70.3033 46.8267 70.3029C46.8267 70.3025 46.8267 70.3021 46.8267 70.3017C46.8267 70.3013 46.8267 70.3009 46.8267 70.3005C46.8267 70.3001 46.8267 70.2997 46.8267 70.2993C46.8267 70.2989 46.8267 70.2985 46.8267 70.2981C46.8267 70.2978 46.8267 70.2974 46.8267 70.297C46.8267 70.2966 46.8267 70.2962 46.8267 70.2958C46.8267 70.2954 46.8267 70.295 46.8267 70.2946C46.8267 70.2942 46.8267 70.2938 46.8267 70.2934C46.8267 70.293 46.8267 70.2926 46.8267 70.2922C46.8267 70.2918 46.8267 70.2914 46.8267 70.291C46.8267 70.2906 46.8267 70.2902 46.8267 70.2898C46.8267 70.2894 46.8267 70.289 46.8267 70.2886C46.8267 70.2882 46.8267 70.2878 46.8267 70.2874C46.8267 70.287 46.8267 70.2867 46.8267 70.2863C46.8267 70.2859 46.8267 70.2855 46.8267 70.2851C46.8267 70.2847 46.8267 70.2843 46.8267 70.2839C46.8267 70.2835 46.8267 70.2831 46.8267 70.2827C46.8267 70.2823 46.8267 70.2819 46.8267 70.2815C46.8267 70.2811 46.8267 70.2807 46.8267 70.2803C46.8267 70.2799 46.8267 70.2795 46.8267 70.2791C46.8267 70.2787 46.8267 70.2783 46.8267 70.2779C46.8267 70.2775 46.8267 70.2771 46.8267 70.2767C46.8267 70.2763 46.8267 70.2759 46.8267 70.2756C46.8267 70.2752 46.8267 70.2748 46.8267 70.2744C46.8267 70.274 46.8267 70.2736 46.8267 70.2732C46.8267 70.2728 46.8267 70.2724 46.8267 70.272C46.8267 70.2716 46.8267 70.2712 46.8267 70.2708C46.8267 70.2704 46.8267 70.27 46.8267 70.2696C46.8267 70.2692 46.8267 70.2688 46.8267 70.2684C46.8267 70.268 46.8267 70.2676 46.8267 70.2672C46.8267 70.2668 46.8267 70.2664 46.8267 70.266C46.8267 70.2656 46.8267 70.2652 46.8267 70.2648C46.8267 70.2645 46.8267 70.2641 46.8267 70.2637C46.8267 70.2633 46.8267 70.2629 46.8267 70.2625C46.8267 70.2621 46.8267 70.2617 46.8267 70.2613C46.8267 70.2609 46.8267 70.2605 46.8267 70.2601C46.8267 70.2597 46.8267 70.2593 46.8267 70.2589C46.8267 70.2585 46.8267 70.2581 46.8267 70.2577C46.8267 70.2573 46.8267 70.2569 46.8267 70.2565C46.8267 70.2561 46.8267 70.2557 46.8267 70.2553C46.8267 70.2549 46.8267 70.2545 46.8267 70.2541C46.8267 70.2537 46.8267 70.2533 46.8267 70.2529C46.8267 70.2526 46.8267 70.2522 46.8267 70.2518C46.8267 70.2514 46.8267 70.251 46.8267 70.2506C46.8267 70.2502 46.8267 70.2498 46.8267 70.2494C46.8267 70.249 46.8267 70.2486 46.8267 70.2482C46.8267 70.2478 46.8267 70.2474 46.8267 70.247C46.8267 70.2466 46.8267 70.2462 46.8267 70.2458C46.8267 70.2454 46.8267 70.245 46.8267 70.2446C46.8267 70.2442 46.8267 70.2438 46.8267 70.2434C46.8267 70.243 46.8267 70.2426 46.8267 70.2422C46.8267 70.2418 46.8267 70.2415 46.8267 70.2411C46.8267 70.2407 46.8267 70.2403 46.8267 70.2399C46.8267 70.2395 46.8267 70.2391 46.8267 70.2387C46.8267 70.2383 46.8267 70.2379 46.8267 70.2375C46.8267 70.2371 46.8267 70.2367 46.8267 70.2363C46.8267 70.2359 46.8267 70.2355 46.8267 70.2351C46.8267 70.2347 46.8267 70.2343 46.8267 70.2339C46.8267 70.2335 46.8267 70.2331 46.8267 70.2327C46.8267 70.2323 46.8267 70.2319 46.8267 70.2315C46.8267 70.2311 46.8267 70.2307 46.8267 70.2304C46.8267 70.23 46.8267 70.2296 46.8267 70.2292C46.8267 70.2288 46.8267 70.2284 46.8267 70.228C46.8267 70.2276 46.8267 70.2272 46.8267 70.2268C46.8267 70.2264 46.8267 70.226 46.8267 70.2256C46.8267 70.2252 46.8267 70.2248 46.8267 70.2244C46.8267 70.224 46.8267 70.2236 46.8267 70.2232C46.8267 70.2228 46.8267 70.2224 46.8267 70.222C46.8267 70.2216 46.8267 70.2212 46.8267 70.2208C46.8267 70.2204 46.8267 70.22 46.8267 70.2196C46.8267 70.2192 46.8267 70.2189 46.8267 70.2185C46.8267 70.2181 46.8267 70.2177 46.8267 70.2173C46.8267 70.2169 46.8267 70.2165 46.8267 70.2161C46.8267 70.2157 46.8267 70.2153 46.8267 70.2149C46.8267 70.2145 46.8267 70.2141 46.8267 70.2137C46.8267 70.2133 46.8267 70.2129 46.8267 70.2125C46.8267 70.2121 46.8267 70.2117 46.8267 70.2113C46.8267 70.2109 46.8267 70.2105 46.8267 70.2101C46.8267 70.2097 46.8267 70.2093 46.8267 70.2089C46.8267 70.2085 46.8267 70.2081 46.8267 70.2078C46.8267 70.2074 46.8267 70.207 46.8267 70.2066C46.8267 70.2062 46.8267 70.2058 46.8267 70.2054C46.8267 70.205 46.8267 70.2046 46.8267 70.2042C46.8267 70.2038 46.8267 70.2034 46.8267 70.203C46.8267 70.2026 46.8267 70.2022 46.8267 70.2018C46.8267 70.2014 46.8267 70.201 46.8267 70.2006C46.8267 70.2002 46.8267 70.1998 46.8267 70.1994C46.8267 70.199 46.8267 70.1986 46.8267 70.1982C46.8267 70.1978 46.8267 70.1974 46.8267 70.197C46.8267 70.1966 46.8267 70.1963 46.8267 70.1959C46.8267 70.1955 46.8267 70.1951 46.8267 70.1947C46.8267 70.1943 46.8267 70.1939 46.8267 70.1935C46.8267 70.1931 46.8267 70.1927 46.8267 70.1923C46.8267 70.1919 46.8267 70.1915 46.8267 70.1911C46.8267 70.1907 46.8267 70.1903 46.8267 70.1899C46.8267 70.1895 46.8267 70.1891 46.8267 70.1887C46.8267 70.1883 46.8267 70.1879 46.8267 70.1875C46.8267 70.1871 46.8267 70.1867 46.8267 70.1863C46.8267 70.1859 46.8267 70.1855 46.8267 70.1852C46.8267 70.1848 46.8267 70.1844 46.8267 70.184C46.8267 70.1836 46.8267 70.1832 46.8267 70.1828C46.8267 70.1824 46.8267 70.182 46.8267 70.1816C46.8267 70.1812 46.8267 70.1808 46.8267 70.1804C46.8267 70.18 46.8267 70.1796 46.8267 70.1792C46.8267 70.1788 46.8267 70.1784 46.8267 70.178C46.8267 70.1776 46.8267 70.1772 46.8267 70.1768C46.8267 70.1764 46.8267 70.176 46.8267 70.1756C46.8267 70.1752 46.8267 70.1748 46.8267 70.1744C46.8267 70.174 46.8267 70.1737 46.8267 70.1733C46.8267 70.1729 46.8267 70.1725 46.8267 70.1721C46.8267 70.1717 46.8267 70.1713 46.8267 70.1709C46.8267 70.1705 46.8267 70.1701 46.8267 70.1697C46.8267 70.1693 46.8267 70.1689 46.8267 70.1685C46.8267 70.1681 46.8267 70.1677 46.8267 70.1673C46.8267 70.1669 46.8267 70.1665 46.8267 70.1661C46.8267 70.1657 46.8267 70.1653 46.8267 70.1649C46.8267 70.1645 46.8267 70.1641 46.8267 70.1637C46.8267 70.1633 46.8267 70.1629 46.8267 70.1626C46.8267 70.1622 46.8267 70.1618 46.8267 70.1614C46.8267 70.161 46.8267 70.1606 46.8267 70.1602C46.8267 70.1598 46.8267 70.1594 46.8267 70.159C46.8267 70.1586 46.8267 70.1582 46.8267 70.1578C46.8267 70.1574 46.8267 70.157 46.8267 70.1566C46.8267 70.1562 46.8267 70.1558 46.8267 70.1554C46.8267 70.155 46.8267 70.1546 46.8267 70.1542C46.8267 70.1538 46.8267 70.1534 46.8267 70.153C46.8267 70.1526 46.8267 70.1522 46.8267 70.1518C46.8267 70.1515 46.8267 70.1511 46.8267 70.1507C46.8267 70.1503 46.8267 70.1499 46.8267 70.1495C46.8267 70.1491 46.8267 70.1487 46.8267 70.1483C46.8267 70.1479 46.8267 70.1475 46.8267 70.1471C46.8267 70.1467 46.8267 70.1463 46.8267 70.1459C46.8267 70.1455 46.8267 70.1451 46.8267 70.1447C46.8267 70.1443 46.8267 70.1439 46.8267 70.1435C46.8267 70.1431 46.8267 70.1427 46.8267 70.1423C46.8267 70.1419 46.8267 70.1415 46.8267 70.1411C46.8267 70.1407 46.8267 70.1404 46.8267 70.14C46.8267 70.1396 46.8267 70.1392 46.8267 70.1388C46.8267 70.1384 46.8267 70.138 46.8267 70.1376C46.8267 70.1372 46.8267 70.1368 46.8267 70.1364C46.8267 70.136 46.8267 70.1356 46.8267 70.1352C46.8267 70.1348 46.8267 70.1344 46.8267 70.134C46.8267 70.1336 46.8267 70.1332 46.8267 70.1328C46.8267 70.1324 46.8267 70.132 46.8267 70.1316C46.8267 70.1312 46.8267 70.1308 46.8267 70.1304C46.8267 70.13 46.8267 70.1296 46.8267 70.1292C46.8267 70.1288 46.8267 70.1285 46.8267 70.1281C46.8267 70.1277 46.8267 70.1273 46.8267 70.1269C46.8267 70.1265 46.8267 70.1261 46.8267 70.1257C46.8267 70.1253 46.8267 70.1249 46.8267 70.1245C46.8267 70.1241 46.8267 70.1237 46.8267 70.1233C46.8267 70.1229 46.8267 70.1225 46.8267 70.1221C46.8267 70.1217 46.8267 70.1213 46.8267 70.1209C46.8267 70.1205 46.8267 70.1201 46.8267 70.1197C46.8267 70.1193 46.8267 70.1189 46.8267 70.1185C46.8267 70.1181 46.8267 70.1177 46.8267 70.1174C46.8267 70.117 46.8267 70.1166 46.8267 70.1162C46.8267 70.1158 46.8267 70.1154 46.8267 70.115C46.8267 70.1146 46.8267 70.1142 46.8267 70.1138C46.8267 70.1134 46.8267 70.113 46.8267 70.1126C46.8267 70.1122 46.8267 70.1118 46.8267 70.1114C46.8267 70.111 46.8267 70.1106 46.8267 70.1102C46.8267 70.1098 46.8267 70.1094 46.8267 70.109C46.8267 70.1086 46.8267 70.1082 46.8267 70.1078C46.8267 70.1074 46.8267 70.107 46.8267 70.1066C46.8267 70.1063 46.8267 70.1059 46.8267 70.1055C46.8267 70.1051 46.8267 70.1047 46.8267 70.1043C46.8267 70.1039 46.8267 70.1035 46.8267 70.1031H42.8268C42.8268 70.1035 42.8268 70.1039 42.8268 70.1043C42.8268 70.1047 42.8268 70.1051 42.8268 70.1055C42.8268 70.1059 42.8268 70.1063 42.8268 70.1066C42.8268 70.107 42.8268 70.1074 42.8268 70.1078C42.8268 70.1082 42.8268 70.1086 42.8268 70.109C42.8268 70.1094 42.8268 70.1098 42.8268 70.1102C42.8268 70.1106 42.8268 70.111 42.8268 70.1114C42.8268 70.1118 42.8268 70.1122 42.8268 70.1126C42.8268 70.113 42.8268 70.1134 42.8268 70.1138C42.8268 70.1142 42.8268 70.1146 42.8268 70.115C42.8268 70.1154 42.8268 70.1158 42.8268 70.1162C42.8268 70.1166 42.8268 70.117 42.8268 70.1174C42.8268 70.1177 42.8268 70.1181 42.8268 70.1185C42.8268 70.1189 42.8268 70.1193 42.8268 70.1197C42.8268 70.1201 42.8268 70.1205 42.8268 70.1209C42.8268 70.1213 42.8268 70.1217 42.8268 70.1221C42.8268 70.1225 42.8268 70.1229 42.8268 70.1233C42.8268 70.1237 42.8268 70.1241 42.8268 70.1245C42.8268 70.1249 42.8268 70.1253 42.8268 70.1257C42.8268 70.1261 42.8268 70.1265 42.8268 70.1269C42.8268 70.1273 42.8268 70.1277 42.8268 70.1281C42.8268 70.1285 42.8268 70.1288 42.8268 70.1292C42.8268 70.1296 42.8268 70.13 42.8268 70.1304C42.8268 70.1308 42.8268 70.1312 42.8268 70.1316C42.8268 70.132 42.8268 70.1324 42.8268 70.1328C42.8268 70.1332 42.8268 70.1336 42.8268 70.134C42.8268 70.1344 42.8268 70.1348 42.8268 70.1352C42.8268 70.1356 42.8268 70.136 42.8268 70.1364C42.8268 70.1368 42.8268 70.1372 42.8268 70.1376C42.8268 70.138 42.8268 70.1384 42.8268 70.1388C42.8268 70.1392 42.8268 70.1396 42.8268 70.14C42.8268 70.1404 42.8268 70.1407 42.8268 70.1411C42.8268 70.1415 42.8268 70.1419 42.8268 70.1423C42.8268 70.1427 42.8268 70.1431 42.8268 70.1435C42.8268 70.1439 42.8268 70.1443 42.8268 70.1447C42.8268 70.1451 42.8268 70.1455 42.8268 70.1459C42.8268 70.1463 42.8268 70.1467 42.8268 70.1471C42.8268 70.1475 42.8268 70.1479 42.8268 70.1483C42.8268 70.1487 42.8268 70.1491 42.8268 70.1495C42.8268 70.1499 42.8268 70.1503 42.8268 70.1507C42.8268 70.1511 42.8268 70.1515 42.8268 70.1518C42.8268 70.1522 42.8268 70.1526 42.8268 70.153C42.8268 70.1534 42.8268 70.1538 42.8268 70.1542C42.8268 70.1546 42.8268 70.155 42.8268 70.1554C42.8268 70.1558 42.8268 70.1562 42.8268 70.1566C42.8268 70.157 42.8268 70.1574 42.8268 70.1578C42.8268 70.1582 42.8268 70.1586 42.8268 70.159C42.8268 70.1594 42.8268 70.1598 42.8268 70.1602C42.8268 70.1606 42.8268 70.161 42.8268 70.1614C42.8268 70.1618 42.8268 70.1622 42.8268 70.1626C42.8268 70.1629 42.8268 70.1633 42.8268 70.1637C42.8268 70.1641 42.8268 70.1645 42.8268 70.1649C42.8268 70.1653 42.8268 70.1657 42.8268 70.1661C42.8268 70.1665 42.8268 70.1669 42.8268 70.1673C42.8268 70.1677 42.8268 70.1681 42.8268 70.1685C42.8268 70.1689 42.8268 70.1693 42.8268 70.1697C42.8268 70.1701 42.8268 70.1705 42.8268 70.1709C42.8268 70.1713 42.8268 70.1717 42.8268 70.1721C42.8268 70.1725 42.8268 70.1729 42.8268 70.1733C42.8268 70.1737 42.8268 70.174 42.8268 70.1744C42.8268 70.1748 42.8268 70.1752 42.8268 70.1756C42.8268 70.176 42.8268 70.1764 42.8268 70.1768C42.8268 70.1772 42.8268 70.1776 42.8268 70.178C42.8268 70.1784 42.8268 70.1788 42.8268 70.1792C42.8268 70.1796 42.8268 70.18 42.8268 70.1804C42.8268 70.1808 42.8268 70.1812 42.8268 70.1816C42.8268 70.182 42.8268 70.1824 42.8268 70.1828C42.8268 70.1832 42.8268 70.1836 42.8268 70.184C42.8268 70.1844 42.8268 70.1848 42.8268 70.1852C42.8268 70.1855 42.8268 70.1859 42.8268 70.1863C42.8268 70.1867 42.8268 70.1871 42.8268 70.1875C42.8268 70.1879 42.8268 70.1883 42.8268 70.1887C42.8268 70.1891 42.8268 70.1895 42.8268 70.1899C42.8268 70.1903 42.8268 70.1907 42.8268 70.1911C42.8268 70.1915 42.8268 70.1919 42.8268 70.1923C42.8268 70.1927 42.8268 70.1931 42.8268 70.1935C42.8268 70.1939 42.8268 70.1943 42.8268 70.1947C42.8268 70.1951 42.8268 70.1955 42.8268 70.1959C42.8268 70.1963 42.8268 70.1966 42.8268 70.197C42.8268 70.1974 42.8268 70.1978 42.8268 70.1982C42.8268 70.1986 42.8268 70.199 42.8268 70.1994C42.8268 70.1998 42.8268 70.2002 42.8268 70.2006C42.8268 70.201 42.8268 70.2014 42.8268 70.2018C42.8268 70.2022 42.8268 70.2026 42.8268 70.203C42.8268 70.2034 42.8268 70.2038 42.8268 70.2042C42.8268 70.2046 42.8268 70.205 42.8268 70.2054C42.8268 70.2058 42.8268 70.2062 42.8268 70.2066C42.8268 70.207 42.8268 70.2074 42.8268 70.2078C42.8268 70.2081 42.8268 70.2085 42.8268 70.2089C42.8268 70.2093 42.8268 70.2097 42.8268 70.2101C42.8268 70.2105 42.8268 70.2109 42.8268 70.2113C42.8268 70.2117 42.8268 70.2121 42.8268 70.2125C42.8268 70.2129 42.8268 70.2133 42.8268 70.2137C42.8268 70.2141 42.8268 70.2145 42.8268 70.2149C42.8268 70.2153 42.8268 70.2157 42.8268 70.2161C42.8268 70.2165 42.8268 70.2169 42.8268 70.2173C42.8268 70.2177 42.8268 70.2181 42.8268 70.2185C42.8268 70.2189 42.8268 70.2192 42.8268 70.2196C42.8268 70.22 42.8268 70.2204 42.8268 70.2208C42.8268 70.2212 42.8268 70.2216 42.8268 70.222C42.8268 70.2224 42.8268 70.2228 42.8268 70.2232C42.8268 70.2236 42.8268 70.224 42.8268 70.2244C42.8268 70.2248 42.8268 70.2252 42.8268 70.2256C42.8268 70.226 42.8268 70.2264 42.8268 70.2268C42.8268 70.2272 42.8268 70.2276 42.8268 70.228C42.8268 70.2284 42.8268 70.2288 42.8268 70.2292C42.8268 70.2296 42.8268 70.23 42.8268 70.2304C42.8268 70.2307 42.8268 70.2311 42.8268 70.2315C42.8268 70.2319 42.8268 70.2323 42.8268 70.2327C42.8268 70.2331 42.8268 70.2335 42.8268 70.2339C42.8268 70.2343 42.8268 70.2347 42.8268 70.2351C42.8268 70.2355 42.8268 70.2359 42.8268 70.2363C42.8268 70.2367 42.8268 70.2371 42.8268 70.2375C42.8268 70.2379 42.8268 70.2383 42.8268 70.2387C42.8268 70.2391 42.8268 70.2395 42.8268 70.2399C42.8268 70.2403 42.8268 70.2407 42.8268 70.2411C42.8268 70.2415 42.8268 70.2418 42.8268 70.2422C42.8268 70.2426 42.8268 70.243 42.8268 70.2434C42.8268 70.2438 42.8268 70.2442 42.8268 70.2446C42.8268 70.245 42.8268 70.2454 42.8268 70.2458C42.8268 70.2462 42.8268 70.2466 42.8268 70.247C42.8268 70.2474 42.8268 70.2478 42.8268 70.2482C42.8268 70.2486 42.8268 70.249 42.8268 70.2494C42.8268 70.2498 42.8268 70.2502 42.8268 70.2506C42.8268 70.251 42.8268 70.2514 42.8268 70.2518C42.8268 70.2522 42.8268 70.2526 42.8268 70.2529C42.8268 70.2533 42.8268 70.2537 42.8268 70.2541C42.8268 70.2545 42.8268 70.2549 42.8268 70.2553C42.8268 70.2557 42.8268 70.2561 42.8268 70.2565C42.8268 70.2569 42.8268 70.2573 42.8268 70.2577C42.8268 70.2581 42.8268 70.2585 42.8268 70.2589C42.8268 70.2593 42.8268 70.2597 42.8268 70.2601C42.8268 70.2605 42.8268 70.2609 42.8268 70.2613C42.8268 70.2617 42.8268 70.2621 42.8268 70.2625C42.8268 70.2629 42.8268 70.2633 42.8268 70.2637C42.8268 70.2641 42.8268 70.2645 42.8268 70.2648C42.8268 70.2652 42.8268 70.2656 42.8268 70.266C42.8268 70.2664 42.8268 70.2668 42.8268 70.2672C42.8268 70.2676 42.8268 70.268 42.8268 70.2684C42.8268 70.2688 42.8268 70.2692 42.8268 70.2696C42.8268 70.27 42.8268 70.2704 42.8268 70.2708C42.8268 70.2712 42.8268 70.2716 42.8268 70.272C42.8268 70.2724 42.8268 70.2728 42.8268 70.2732C42.8268 70.2736 42.8268 70.274 42.8268 70.2744C42.8268 70.2748 42.8268 70.2752 42.8268 70.2756C42.8268 70.2759 42.8268 70.2763 42.8268 70.2767C42.8268 70.2771 42.8268 70.2775 42.8268 70.2779C42.8268 70.2783 42.8268 70.2787 42.8268 70.2791C42.8268 70.2795 42.8268 70.2799 42.8268 70.2803C42.8268 70.2807 42.8268 70.2811 42.8268 70.2815C42.8268 70.2819 42.8268 70.2823 42.8268 70.2827C42.8268 70.2831 42.8268 70.2835 42.8268 70.2839C42.8268 70.2843 42.8268 70.2847 42.8268 70.2851C42.8268 70.2855 42.8268 70.2859 42.8268 70.2863C42.8268 70.2867 42.8268 70.287 42.8268 70.2874C42.8268 70.2878 42.8268 70.2882 42.8268 70.2886C42.8268 70.289 42.8268 70.2894 42.8268 70.2898C42.8268 70.2902 42.8268 70.2906 42.8268 70.291C42.8268 70.2914 42.8268 70.2918 42.8268 70.2922C42.8268 70.2926 42.8268 70.293 42.8268 70.2934C42.8268 70.2938 42.8268 70.2942 42.8268 70.2946C42.8268 70.295 42.8268 70.2954 42.8268 70.2958C42.8268 70.2962 42.8268 70.2966 42.8268 70.297C42.8268 70.2974 42.8268 70.2978 42.8268 70.2981C42.8268 70.2985 42.8268 70.2989 42.8268 70.2993C42.8268 70.2997 42.8268 70.3001 42.8268 70.3005C42.8268 70.3009 42.8268 70.3013 42.8268 70.3017C42.8268 70.3021 42.8268 70.3025 42.8268 70.3029C42.8268 70.3033 42.8268 70.3037 42.8268 70.3041C42.8268 70.3045 42.8268 70.3049 42.8268 70.3053C42.8268 70.3057 42.8268 70.3061 42.8268 70.3065C42.8268 70.3069 42.8268 70.3073 42.8268 70.3077C42.8268 70.3081 42.8268 70.3085 42.8268 70.3089C42.8268 70.3092 42.8268 70.3096 42.8268 70.31C42.8268 70.3104 42.8268 70.3108 42.8268 70.3112C42.8268 70.3116 42.8268 70.312 42.8268 70.3124C42.8268 70.3128 42.8268 70.3132 42.8268 70.3136C42.8268 70.314 42.8268 70.3144 42.8268 70.3148C42.8268 70.3152 42.8268 70.3156 42.8268 70.316C42.8268 70.3164 42.8268 70.3168 42.8268 70.3172C42.8268 70.3176 42.8268 70.318 42.8268 70.3184C42.8268 70.3188 42.8268 70.3192 42.8268 70.3196C42.8268 70.32 42.8268 70.3204 42.8268 70.3207C42.8268 70.3211 42.8268 70.3215 42.8268 70.3219C42.8268 70.3223 42.8268 70.3227 42.8268 70.3231C42.8268 70.3235 42.8268 70.3239 42.8268 70.3243C42.8268 70.3247 42.8268 70.3251 42.8268 70.3255C42.8268 70.3259 42.8268 70.3263 42.8268 70.3267C42.8268 70.3271 42.8268 70.3275 42.8268 70.3279C42.8268 70.3283 42.8268 70.3287 42.8268 70.3291C42.8268 70.3295 42.8268 70.3299 42.8268 70.3303C42.8268 70.3307 42.8268 70.3311 42.8268 70.3315C42.8268 70.3319 42.8268 70.3322 42.8268 70.3326C42.8268 70.333 42.8268 70.3334 42.8268 70.3338C42.8268 70.3342 42.8268 70.3346 42.8268 70.335C42.8268 70.3354 42.8268 70.3358 42.8268 70.3362C42.8268 70.3366 42.8268 70.337 42.8268 70.3374C42.8268 70.3378 42.8268 70.3382 42.8268 70.3386C42.8268 70.339 42.8268 70.3394 42.8268 70.3398C42.8268 70.3402 42.8268 70.3406 42.8268 70.341C42.8268 70.3414 42.8268 70.3418 42.8268 70.3422C42.8268 70.3426 42.8268 70.343 42.8268 70.3433C42.8268 70.3437 42.8268 70.3441 42.8268 70.3445C42.8268 70.3449 42.8268 70.3453 42.8268 70.3457C42.8268 70.3461 42.8268 70.3465 42.8268 70.3469C42.8268 70.3473 42.8268 70.3477 42.8268 70.3481C42.8268 70.3485 42.8268 70.3489 42.8268 70.3493C42.8268 70.3497 42.8268 70.3501 42.8268 70.3505C42.8268 70.3509 42.8268 70.3513 42.8268 70.3517C42.8268 70.3521 42.8268 70.3525 42.8268 70.3529C42.8268 70.3533 42.8268 70.3537 42.8268 70.3541C42.8268 70.3545 42.8268 70.3548 42.8268 70.3552C42.8268 70.3556 42.8268 70.356 42.8268 70.3564C42.8268 70.3568 42.8268 70.3572 42.8268 70.3576C42.8268 70.358 42.8268 70.3584 42.8268 70.3588C42.8268 70.3592 42.8268 70.3596 42.8268 70.36C42.8268 70.3604 42.8268 70.3608 42.8268 70.3612C42.8268 70.3616 42.8268 70.362 42.8268 70.3624C42.8268 70.3628 42.8268 70.3632 42.8268 70.3636C42.8268 70.364 42.8268 70.3644 42.8268 70.3648C42.8268 70.3652 42.8268 70.3656 42.8268 70.3659C42.8268 70.3663 42.8268 70.3667 42.8268 70.3671C42.8268 70.3675 42.8268 70.3679 42.8268 70.3683C42.8268 70.3687 42.8268 70.3691 42.8268 70.3695C42.8268 70.3699 42.8268 70.3703 42.8268 70.3707C42.8268 70.3711 42.8268 70.3715 42.8268 70.3719C42.8268 70.3723 42.8268 70.3727 42.8268 70.3731C42.8268 70.3735 42.8268 70.3739 42.8268 70.3743C42.8268 70.3747 42.8268 70.3751 42.8268 70.3755C42.8268 70.3759 42.8268 70.3763 42.8268 70.3767C42.8268 70.377 42.8268 70.3774 42.8268 70.3778C42.8268 70.3782 42.8268 70.3786 42.8268 70.379C42.8268 70.3794 42.8268 70.3798 42.8268 70.3802C42.8268 70.3806 42.8268 70.381 42.8268 70.3814C42.8268 70.3818 42.8268 70.3822 42.8268 70.3826C42.8268 70.383 42.8268 70.3834 42.8268 70.3838C42.8268 70.3842 42.8268 70.3846 42.8268 70.385C42.8268 70.3854 42.8268 70.3858 42.8268 70.3862C42.8268 70.3866 42.8268 70.387 42.8268 70.3874C42.8268 70.3878 42.8268 70.3882 42.8268 70.3885C42.8268 70.3889 42.8268 70.3893 42.8268 70.3897C42.8268 70.3901 42.8268 70.3905 42.8268 70.3909C42.8268 70.3913 42.8268 70.3917 42.8268 70.3921C42.8268 70.3925 42.8268 70.3929 42.8268 70.3933C42.8268 70.3937 42.8268 70.3941 42.8268 70.3945C42.8268 70.3949 42.8268 70.3953 42.8268 70.3957C42.8268 70.3961 42.8268 70.3965 42.8268 70.3969C42.8268 70.3973 42.8268 70.3977 42.8268 70.3981C42.8268 70.3985 42.8268 70.3989 42.8268 70.3993C42.8268 70.3997 42.8268 70.4 42.8268 70.4004C42.8268 70.4008 42.8268 70.4012 42.8268 70.4016C42.8268 70.402 42.8268 70.4024 42.8268 70.4028C42.8268 70.4032 42.8268 70.4036 42.8268 70.404C42.8268 70.4044 42.8268 70.4048 42.8268 70.4052C42.8268 70.4056 42.8268 70.406 42.8268 70.4064C42.8268 70.4068 42.8268 70.4072 42.8268 70.4076C42.8268 70.408 42.8268 70.4084 42.8268 70.4088C42.8268 70.4092 42.8268 70.4096 42.8268 70.41C42.8268 70.4104 42.8268 70.4108 42.8268 70.4111C42.8268 70.4115 42.8268 70.4119 42.8268 70.4123C42.8268 70.4127 42.8268 70.4131 42.8268 70.4135C42.8268 70.4139 42.8268 70.4143 42.8268 70.4147C42.8268 70.4151 42.8268 70.4155 42.8268 70.4159C42.8268 70.4163 42.8268 70.4167 42.8268 70.4171C42.8268 70.4175 42.8268 70.4179 42.8268 70.4183C42.8268 70.4187 42.8268 70.4191 42.8268 70.4195C42.8268 70.4199 42.8268 70.4203 42.8268 70.4207C42.8268 70.4211 42.8268 70.4215 42.8268 70.4219C42.8268 70.4222 42.8268 70.4226 42.8268 70.423C42.8268 70.4234 42.8268 70.4238 42.8268 70.4242C42.8268 70.4246 42.8268 70.425 42.8268 70.4254C42.8268 70.4258 42.8268 70.4262 42.8268 70.4266C42.8268 70.427 42.8268 70.4274 42.8268 70.4278C42.8268 70.4282 42.8268 70.4286 42.8268 70.429C42.8268 70.4294 42.8268 70.4298 42.8268 70.4302C42.8268 70.4306 42.8268 70.431 42.8268 70.4314C42.8268 70.4318 42.8268 70.4322 42.8268 70.4326C42.8268 70.433 42.8268 70.4333 42.8268 70.4337C42.8268 70.4341 42.8268 70.4345 42.8268 70.4349C42.8268 70.4353 42.8268 70.4357 42.8268 70.4361C42.8268 70.4365 42.8268 70.4369 42.8268 70.4373C42.8268 70.4377 42.8268 70.4381 42.8268 70.4385C42.8268 70.4389 42.8268 70.4393 42.8268 70.4397C42.8268 70.4401 42.8268 70.4405 42.8268 70.4409C42.8268 70.4413 42.8268 70.4417 42.8268 70.4421C42.8268 70.4425 42.8268 70.4429 42.8268 70.4433C42.8268 70.4437 42.8268 70.4441 42.8268 70.4445C42.8268 70.4448 42.8268 70.4452 42.8268 70.4456C42.8268 70.446 42.8268 70.4464 42.8268 70.4468C42.8268 70.4472 42.8268 70.4476 42.8268 70.448C42.8268 70.4484 42.8268 70.4488 42.8268 70.4492C42.8268 70.4496 42.8268 70.45 42.8268 70.4504C42.8268 70.4508 42.8268 70.4512 42.8268 70.4516C42.8268 70.452 42.8268 70.4524 42.8268 70.4528C42.8268 70.4532 42.8268 70.4536 42.8268 70.454C42.8268 70.4544 42.8268 70.4548 42.8268 70.4552C42.8268 70.4556 42.8268 70.456 42.8268 70.4563C42.8268 70.4567 42.8268 70.4571 42.8268 70.4575C42.8268 70.4579 42.8268 70.4583 42.8268 70.4587C42.8268 70.4591 42.8268 70.4595 42.8268 70.4599C42.8268 70.4603 42.8268 70.4607 42.8268 70.4611C42.8268 70.4615 42.8268 70.4619 42.8268 70.4623C42.8268 70.4627 42.8268 70.4631 42.8268 70.4635C42.8268 70.4639 42.8268 70.4643 42.8268 70.4647C42.8268 70.4651 42.8268 70.4655 42.8268 70.4659C42.8268 70.4663 42.8268 70.4667 42.8268 70.4671C42.8268 70.4674 42.8268 70.4678 42.8268 70.4682C42.8268 70.4686 42.8268 70.469 42.8268 70.4694C42.8268 70.4698 42.8268 70.4702 42.8268 70.4706C42.8268 70.471 42.8268 70.4714 42.8268 70.4718C42.8268 70.4722 42.8268 70.4726 42.8268 70.473C42.8268 70.4734 42.8268 70.4738 42.8268 70.4742C42.8268 70.4746 42.8268 70.475 42.8268 70.4754C42.8268 70.4758 42.8268 70.4762 42.8268 70.4766C42.8268 70.477 42.8268 70.4774 42.8268 70.4778C42.8268 70.4782 42.8268 70.4785 42.8268 70.4789C42.8268 70.4793 42.8268 70.4797 42.8268 70.4801C42.8268 70.4805 42.8268 70.4809 42.8268 70.4813C42.8268 70.4817 42.8268 70.4821 42.8268 70.4825C42.8268 70.4829 42.8268 70.4833 42.8268 70.4837C42.8268 70.4841 42.8268 70.4845 42.8268 70.4849C42.8268 70.4853 42.8268 70.4857 42.8268 70.4861C42.8268 70.4865 42.8268 70.4869 42.8268 70.4873C42.8268 70.4877 42.8268 70.4881 42.8268 70.4885C42.8268 70.4889 42.8268 70.4893 42.8268 70.4897C42.8268 70.49 42.8268 70.4904 42.8268 70.4908C42.8268 70.4912 42.8268 70.4916 42.8268 70.492C42.8268 70.4924 42.8268 70.4928 42.8268 70.4932C42.8268 70.4936 42.8268 70.494 42.8268 70.4944C42.8268 70.4948 42.8268 70.4952 42.8268 70.4956C42.8268 70.496 42.8268 70.4964 42.8268 70.4968C42.8268 70.4972 42.8268 70.4976 42.8268 70.498C42.8268 70.4984 42.8268 70.4988 42.8268 70.4992C42.8268 70.4996 42.8268 70.5 42.8268 70.5004C42.8268 70.5008 42.8268 70.5011 42.8268 70.5015C42.8268 70.5019 42.8268 70.5023 42.8268 70.5027C42.8268 70.5031 42.8268 70.5035 42.8268 70.5039C42.8268 70.5043 42.8268 70.5047 42.8268 70.5051C42.8268 70.5055 42.8268 70.5059 42.8268 70.5063C42.8268 70.5067 42.8268 70.5071 42.8268 70.5075C42.8268 70.5079 42.8268 70.5083 42.8268 70.5087C42.8268 70.5091 42.8268 70.5095 42.8268 70.5099C42.8268 70.5103 42.8268 70.5107 42.8268 70.5111C42.8268 70.5115 42.8268 70.5119 42.8268 70.5123C42.8268 70.5126 42.8268 70.513 42.8268 70.5134C42.8268 70.5138 42.8268 70.5142 42.8268 70.5146C42.8268 70.515 42.8268 70.5154 42.8268 70.5158C42.8268 70.5162 42.8268 70.5166 42.8268 70.517C42.8268 70.5174 42.8268 70.5178 42.8268 70.5182C42.8268 70.5186 42.8268 70.519 42.8268 70.5194C42.8268 70.5198 42.8268 70.5202 42.8268 70.5206C42.8268 70.521 42.8268 70.5214 42.8268 70.5218C42.8268 70.5222 42.8268 70.5226 42.8268 70.523C42.8268 70.5234 42.8268 70.5238 42.8268 70.5241C42.8268 70.5245 42.8268 70.5249 42.8268 70.5253C42.8268 70.5257 42.8268 70.5261 42.8268 70.5265C42.8268 70.5269 42.8268 70.5273 42.8268 70.5277C42.8268 70.5281 42.8268 70.5285 42.8268 70.5289C42.8268 70.5293 42.8268 70.5297 42.8268 70.5301C42.8268 70.5305 42.8268 70.5309 42.8268 70.5313C42.8268 70.5317 42.8268 70.5321 42.8268 70.5325C42.8268 70.5329 42.8268 70.5333 42.8268 70.5337C42.8268 70.5341 42.8268 70.5345 42.8268 70.5349C42.8268 70.5352 42.8268 70.5356 42.8268 70.536C42.8268 70.5364 42.8268 70.5368 42.8268 70.5372C42.8268 70.5376 42.8268 70.538 42.8268 70.5384C42.8268 70.5388 42.8268 70.5392 42.8268 70.5396C42.8268 70.54 42.8268 70.5404 42.8268 70.5408C42.8268 70.5412 42.8268 70.5416 42.8268 70.542C42.8268 70.5424 42.8268 70.5428 42.8268 70.5432C42.8268 70.5436 42.8268 70.544 42.8268 70.5444C42.8268 70.5448 42.8268 70.5452 42.8268 70.5456C42.8268 70.546 42.8268 70.5463 42.8268 70.5467C42.8268 70.5471 42.8268 70.5475 42.8268 70.5479C42.8268 70.5483 42.8268 70.5487 42.8268 70.5491C42.8268 70.5495 42.8268 70.5499 42.8268 70.5503C42.8268 70.5507 42.8268 70.5511 42.8268 70.5515C42.8268 70.5519 42.8268 70.5523 42.8268 70.5527C42.8268 70.5531 42.8268 70.5535 42.8268 70.5539C42.8268 70.5543 42.8268 70.5547 42.8268 70.5551C42.8268 70.5555 42.8268 70.5559 42.8268 70.5563C42.8268 70.5567 42.8268 70.5571 42.8268 70.5574C42.8268 70.5578 42.8268 70.5582 42.8268 70.5586C42.8268 70.559 42.8268 70.5594 42.8268 70.5598C42.8268 70.5602 42.8268 70.5606 42.8268 70.561C42.8268 70.5614 42.8268 70.5618 42.8268 70.5622C42.8268 70.5626 42.8268 70.563 42.8268 70.5634C42.8268 70.5638 42.8268 70.5642 42.8268 70.5646C42.8268 70.565 42.8268 70.5654 42.8268 70.5658C42.8268 70.5662 42.8268 70.5666 42.8268 70.567C42.8268 70.5674 42.8268 70.5678 42.8268 70.5682C42.8268 70.5686 42.8268 70.5689 42.8268 70.5693C42.8268 70.5697 42.8268 70.5701 42.8268 70.5705C42.8268 70.5709 42.8268 70.5713 42.8268 70.5717C42.8268 70.5721 42.8268 70.5725 42.8268 70.5729C42.8268 70.5733 42.8268 70.5737 42.8268 70.5741C42.8268 70.5745 42.8268 70.5749 42.8268 70.5753C42.8268 70.5757 42.8268 70.5761 42.8268 70.5765C42.8268 70.5769 42.8268 70.5773 42.8268 70.5777C42.8268 70.5781 42.8268 70.5785 42.8268 70.5789C42.8268 70.5793 42.8268 70.5797 42.8268 70.5801C42.8268 70.5804 42.8268 70.5808 42.8268 70.5812C42.8268 70.5816 42.8268 70.582 42.8268 70.5824C42.8268 70.5828 42.8268 70.5832 42.8268 70.5836C42.8268 70.584 42.8268 70.5844 42.8268 70.5848C42.8268 70.5852 42.8268 70.5856 42.8268 70.586C42.8268 70.5864 42.8268 70.5868 42.8268 70.5872C42.8268 70.5876 42.8268 70.588 42.8268 70.5884C42.8268 70.5888 42.8268 70.5892 42.8268 70.5896C42.8268 70.59 42.8268 70.5904 42.8268 70.5908C42.8268 70.5912 42.8268 70.5915 42.8268 70.5919C42.8268 70.5923 42.8268 70.5927 42.8268 70.5931C42.8268 70.5935 42.8268 70.5939 42.8268 70.5943C42.8268 70.5947 42.8268 70.5951 42.8268 70.5955C42.8268 70.5959 42.8268 70.5963 42.8268 70.5967C42.8268 70.5971 42.8268 70.5975 42.8268 70.5979C42.8268 70.5983 42.8268 70.5987 42.8268 70.5991C42.8268 70.5995 42.8268 70.5999 42.8268 70.6003C42.8268 70.6007 42.8268 70.6011 42.8268 70.6015C42.8268 70.6019 42.8268 70.6023 42.8268 70.6026C42.8268 70.603 42.8268 70.6034 42.8268 70.6038C42.8268 70.6042 42.8268 70.6046 42.8268 70.605C42.8268 70.6054 42.8268 70.6058 42.8268 70.6062C42.8268 70.6066 42.8268 70.607 42.8268 70.6074C42.8268 70.6078 42.8268 70.6082 42.8268 70.6086C42.8268 70.609 42.8268 70.6094 42.8268 70.6098C42.8268 70.6102 42.8268 70.6106 42.8268 70.611C42.8268 70.6114 42.8268 70.6118 42.8268 70.6122C42.8268 70.6126 42.8268 70.613 42.8268 70.6134C42.8268 70.6138 42.8268 70.6141 42.8268 70.6145C42.8268 70.6149 42.8268 70.6153 42.8268 70.6157C42.8268 70.6161 42.8268 70.6165 42.8268 70.6169C42.8268 70.6173 42.8268 70.6177 42.8268 70.6181C42.8268 70.6185 42.8268 70.6189 42.8268 70.6193C42.8268 70.6197 42.8268 70.6201 42.8268 70.6205C42.8268 70.6209 42.8268 70.6213 42.8268 70.6217C42.8268 70.6221 42.8268 70.6225 42.8268 70.6229C42.8268 70.6233 42.8268 70.6237 42.8268 70.6241C42.8268 70.6245 42.8268 70.6249 42.8268 70.6252C42.8268 70.6256 42.8268 70.626 42.8268 70.6264C42.8268 70.6268 42.8268 70.6272 42.8268 70.6276C42.8268 70.628 42.8268 70.6284 42.8268 70.6288C42.8268 70.6292 42.8268 70.6296 42.8268 70.63C42.8268 70.6304 42.8268 70.6308 42.8268 70.6312C42.8268 70.6316 42.8268 70.632 42.8268 70.6324C42.8268 70.6328 42.8268 70.6332 42.8268 70.6336C42.8268 70.634 42.8268 70.6344 42.8268 70.6348C42.8268 70.6352 42.8268 70.6356 42.8268 70.636C42.8268 70.6364 42.8268 70.6367 42.8268 70.6371C42.8268 70.6375 42.8268 70.6379 42.8268 70.6383C42.8268 70.6387 42.8268 70.6391 42.8268 70.6395C42.8268 70.6399 42.8268 70.6403 42.8268 70.6407C42.8268 70.6411 42.8268 70.6415 42.8268 70.6419C42.8268 70.6423 42.8268 70.6427 42.8268 70.6431C42.8268 70.6435 42.8268 70.6439 42.8268 70.6443C42.8268 70.6447 42.8268 70.6451 42.8268 70.6455C42.8268 70.6459 42.8268 70.6463 42.8268 70.6467C42.8268 70.6471 42.8268 70.6475 42.8268 70.6479C42.8268 70.6482 42.8268 70.6486 42.8268 70.649C42.8268 70.6494 42.8268 70.6498 42.8268 70.6502C42.8268 70.6506 42.8268 70.651 42.8268 70.6514C42.8268 70.6518 42.8268 70.6522 42.8268 70.6526C42.8268 70.653 42.8268 70.6534 42.8268 70.6538C42.8268 70.6542 42.8268 70.6546 42.8268 70.655C42.8268 70.6554 42.8268 70.6558 42.8268 70.6562C42.8268 70.6566 42.8268 70.657 42.8268 70.6574C42.8268 70.6578 42.8268 70.6582 42.8268 70.6586C42.8268 70.659 42.8268 70.6593 42.8268 70.6597C42.8268 70.6601 42.8268 70.6605 42.8268 70.6609C42.8268 70.6613 42.8268 70.6617 42.8268 70.6621C42.8268 70.6625 42.8268 70.6629 42.8268 70.6633C42.8268 70.6637 42.8268 70.6641 42.8268 70.6645C42.8268 70.6649 42.8268 70.6653 42.8268 70.6657C42.8268 70.6661 42.8268 70.6665 42.8268 70.6669C42.8268 70.6673 42.8268 70.6677 42.8268 70.6681C42.8268 70.6685 42.8268 70.6689 42.8268 70.6693C42.8268 70.6697 42.8268 70.6701 42.8268 70.6704C42.8268 70.6708 42.8268 70.6712 42.8268 70.6716C42.8268 70.672 42.8268 70.6724 42.8268 70.6728C42.8268 70.6732 42.8268 70.6736 42.8268 70.674C42.8268 70.6744 42.8268 70.6748 42.8268 70.6752C42.8268 70.6756 42.8268 70.676 42.8268 70.6764C42.8268 70.6768 42.8268 70.6772 42.8268 70.6776C42.8268 70.678 42.8268 70.6784 42.8268 70.6788C42.8268 70.6792 42.8268 70.6796 42.8268 70.68C42.8268 70.6804 42.8268 70.6808 42.8268 70.6812C42.8268 70.6815 42.8268 70.6819 42.8268 70.6823C42.8268 70.6827 42.8268 70.6831 42.8268 70.6835C42.8268 70.6839 42.8268 70.6843 42.8268 70.6847C42.8268 70.6851 42.8268 70.6855 42.8268 70.6859C42.8268 70.6863 42.8268 70.6867 42.8268 70.6871C42.8268 70.6875 42.8268 70.6879 42.8268 70.6883C42.8268 70.6887 42.8268 70.6891 42.8268 70.6895C42.8268 70.6899 42.8268 70.6903 42.8268 70.6907C42.8268 70.6911 42.8268 70.6915 42.8268 70.6919C42.8268 70.6923 42.8268 70.6927 42.8268 70.693C42.8268 70.6934 42.8268 70.6938 42.8268 70.6942C42.8268 70.6946 42.8268 70.695 42.8268 70.6954C42.8268 70.6958 42.8268 70.6962 42.8268 70.6966C42.8268 70.697 42.8268 70.6974 42.8268 70.6978C42.8268 70.6982 42.8268 70.6986 42.8268 70.699C42.8268 70.6994 42.8268 70.6998 42.8268 70.7002C42.8268 70.7006 42.8268 70.701 42.8268 70.7014C42.8268 70.7018 42.8268 70.7022 42.8268 70.7026C42.8268 70.703 42.8268 70.7034 42.8268 70.7038C42.8268 70.7042 42.8268 70.7045 42.8268 70.7049C42.8268 70.7053 42.8268 70.7057 42.8268 70.7061C42.8268 70.7065 42.8268 70.7069 42.8268 70.7073C42.8268 70.7077 42.8268 70.7081 42.8268 70.7085C42.8268 70.7089 42.8268 70.7093 42.8268 70.7097C42.8268 70.7101 42.8268 70.7105 42.8268 70.7109C42.8268 70.7113 42.8268 70.7117 42.8268 70.7121H46.8267ZM46.8245 70.1972C47.2978 60.1544 55.7843 52.3741 65.8304 52.773L65.9891 48.7762C53.7472 48.29 43.4056 57.7709 42.829 70.0089L46.8245 70.1972ZM65.9136 52.7746C68.3184 52.77 70.7057 53.1839 72.9686 53.9978L74.3224 50.2339C71.6228 49.2629 68.7748 48.7691 65.9059 48.7746L65.9136 52.7746ZM75.4239 53.0308C80.1735 43.7993 89.7623 38.0749 100.142 38.2742L100.219 34.2749C88.3132 34.0463 77.3149 40.6122 71.8671 51.2008L75.4239 53.0308ZM100.264 38.2728C114.502 37.68 126.539 48.7143 127.183 62.9507L131.178 62.77C130.435 46.3323 116.537 33.5917 100.097 34.2763L100.264 38.2728ZM127.18 62.8621C127.183 65.2365 126.81 67.5963 126.075 69.8542L129.879 71.0915C130.744 68.4328 131.183 65.6543 131.18 62.8586L127.18 62.8621ZM127.693 72.4525C136.252 73.6817 142.701 80.8666 143.001 89.5083L146.999 89.3693C146.631 78.7919 138.738 69.9976 128.261 68.4931L127.693 72.4525ZM143.002 89.3454C142.532 99.3935 134.041 107.179 123.99 106.776L123.83 110.773C136.078 111.264 146.425 101.777 146.998 89.5322L143.002 89.3454ZM85 94.2746V137.775H89V94.2746H85ZM85.5858 92.8604L71.0858 107.36L73.9142 110.189L88.4142 95.6888L85.5858 92.8604ZM85.5858 95.6888L100.086 110.189L102.914 107.36L88.4142 92.8604L85.5858 95.6888Z" fill="#464343"/>
</svg>
